<?xml version="1.0" encoding="utf-8"?>
<!-- Generator: Adobe Illustrator 28.3.0, SVG Export Plug-In . SVG Version: 6.00 Build 0)  -->
<svg version="1.1" id="Слой_1" xmlns="http://www.w3.org/2000/svg" xmlns:xlink="http://www.w3.org/1999/xlink" x="0px" y="0px"
	 viewBox="0 0 1000 1000" style="enable-background:new 0 0 1000 1000;" xml:space="preserve">
<style type="text/css">
	.st0{fill:#FFFFFF;}
	.st1{fill:#A2238D;}
	.st2{fill-rule:evenodd;clip-rule:evenodd;fill:#A2238D;}
	.st3{fill-rule:evenodd;clip-rule:evenodd;fill:#8BC53F;}
	.st4{fill-rule:evenodd;clip-rule:evenodd;fill:#F05523;}
	.st5{fill-rule:evenodd;clip-rule:evenodd;fill:#F7AC3A;}
	.st6{fill-rule:evenodd;clip-rule:evenodd;fill:#FFFFFF;}
	.st7{fill:#8BC53F;}
</style>
<g>
	<circle class="st0" cx="499.99" cy="500.4" r="469.09"/>
	<path class="st1" d="M969.09,500.4h-11.91c-0.01,126.28-51.15,240.5-133.91,323.27c-82.77,82.75-196.99,133.9-323.27,133.91
		c-126.28-0.01-240.5-51.15-323.27-133.91C93.97,740.9,42.82,626.68,42.81,500.4c0.01-126.28,51.15-240.5,133.91-323.27
		c82.77-82.75,196.99-133.9,323.27-133.91c126.28,0.01,240.5,51.15,323.27,133.91c82.75,82.77,133.9,196.99,133.91,323.27H969.09
		H981c0.01-132.79-53.86-253.12-140.88-340.12C753.11,73.25,632.78,19.39,499.99,19.39C367.2,19.39,246.88,73.25,159.87,160.28
		C72.84,247.28,18.98,367.61,18.99,500.4c-0.01,132.79,53.86,253.12,140.88,340.12c87.01,87.03,207.33,140.89,340.12,140.88
		c132.79,0.01,253.12-53.86,340.12-140.88C927.14,753.52,981.01,633.19,981,500.4H969.09z"/>
	<path class="st2" d="M459.6,767.39c-16.67-24.42,44.64-79.33,69.82-47.21c25.59,32.58-23.88,87.38-55.56,59.59
		C466.15,775.82,465.23,775.69,459.6,767.39"/>
	<path class="st3" d="M362.07,373.36c-4.89-12.04-7.69-35.49-50.38-43.05c-25.03-4.44-51.46-45.9-86.36-63.25
		c-34.96-17.25-83.6-24.23-101.45,74.67c-44.08,66.64-2.13,108.75,35.75,108.54c59.01-0.35,82.95-37.18,111.91-32.14
		c52.09,9.07,66.45-0.65,83.27-19.82c16.87-19.15,27.18-2.7,35.34,8.51c8.15,11.13,2.95,32.14,19.21,16.84
		c16.21-15.35,1.47-17.53-14.87-32C379.69,378.46,366.99,385.38,362.07,373.36"/>
	<path class="st4" d="M413.49,178.01c-1.48-4.79-4.14-15.85-18.07-19.84c-1.05,8.51,7.88,26.98,5.48,38.35
		c-8.91,20.34-48.72,30.67-63.99,12.15c-1.67-6.65,2.01-9.68,2.57-14.85c-4.72-13.76-18.28-4.16-29.65-5.1
		c-20.53-35.88-0.44-45.38,31.05-63.23c14.16-8.01,26.24-21.03,39.96-25.45c12.46-4.06,26.08-2.78,36.6-5.15
		c36.45-8.13,70.59-21.16,80.65,18.74c6.32-4.16-3.03-19.07,0.57-25.17c16.37-1.32,37.87,4.06,55.77,10.93
		c16.06,6.11,43.7,18.82,45,29.08c1.65,13.61-19.57,2.66-38.76,3.76c-6.71,0.42-14.83,3.72-22.48,4.29
		c-10.91,0.83-21.29-3.3-27.25-1.99c-6.08,1.32-9.37,7.09-15.97,10.2c-10.62,4.87-24.76,4.28-32.55,7.93
		C444.38,161.08,437.14,185.21,413.49,178.01"/>
	<path class="st4" d="M905.28,548.08c0-16.27-7.92-30.63-19.99-39.73c14.7-3.12,25.72-16.12,25.72-31.72
		c0-15.14-10.45-27.77-24.47-31.37c9.16-2.63,15.87-10.95,15.87-20.95c0-12.11-9.78-21.91-21.87-21.91
		c-12.09,0-21.87,9.79-21.87,21.91c0,9.37,5.86,17.3,14.14,20.43c-15.22,2.72-26.72,15.9-26.72,31.89c0,8.3,3.18,15.79,8.36,21.54
		c-24.11,0.4-44.01,17.84-48.22,40.84c-5.37-12.84-18.09-21.85-32.85-21.85c-19.67,0-35.61,15.89-35.61,35.63
		c0,15.81,10.35,29.06,24.61,33.67c-6.73,6.5-10.96,15.54-10.96,25.66c0,14.41,8.59,26.73,20.93,32.37
		c-14.95,4.66-25.91,18.44-25.91,34.94c0,19.16,14.76,34.75,33.5,36.45c-11.17,4.41-19.09,15.22-19.09,27.93
		c0,4.56,1.07,8.83,2.87,12.71c-4.52-2.2-9.56-3.55-14.91-3.55c-19.01,0-34.42,15.41-34.42,34.42c0,19.01,15.41,34.38,34.42,34.38
		c19.05,0,34.42-15.37,34.42-34.38c0-5.77-1.53-11.11-4.06-15.87c3.6,1.51,7.57,2.38,11.77,2.38c16.6,0,30.01-13.5,30.01-30.09
		v-0.06c11.79-2.42,20.58-12.8,20.58-25.24c0-6.94-2.76-13.21-7.24-17.84c20.74-1.23,37.2-18.25,37.2-39.25
		c0-8.59-2.82-16.45-7.45-22.94c1.01,0.13,1.99,0.31,3,0.31c14.78,0,26.74-11.94,26.74-26.66c0-9.16-4.64-17.21-11.65-22.02
		C896,581.23,905.28,565.79,905.28,548.08z M845.1,597.04c-0.29-0.1-0.61-0.21-0.9-0.29v-0.06c0.33,0.06,0.61,0.25,0.9,0.27V597.04z
		"/>
	<path class="st5" d="M825.2,252.75c-94.3-132.21-208.98-95.31-242.52-80.52c-22.79,10.12-71.22,35.94-71.22,35.94
		s127.11,23.65,192.44,98.65c10.33,11.88,18.84,24.07,25.86,36.34c8.51-9.2,21.92-12.99,34.5-8.57c16.86,5.9,25.72,24.4,19.8,41.23
		c-4.85,13.64-17.84,22.02-31.57,21.62c11.38,39.98,11.21,74.78,13.32,91.8C765.81,489.24,926.34,394.6,825.2,252.75z M706.4,232.8
		c-4.7,13.34-19.36,20.38-32.72,15.68c-13.38-4.68-20.39-19.36-15.68-32.75c4.68-13.36,19.32-20.37,32.7-15.64
		C704.08,204.78,711.13,219.4,706.4,232.8z M803.7,285.07c-4.75,13.64-19.7,20.79-33.29,16.04c-13.62-4.83-20.75-19.76-15.98-33.39
		c4.79-13.55,19.7-20.7,33.29-15.95C801.32,256.57,808.49,271.48,803.7,285.07z"/>
	<path class="st3" d="M340.2,245.47c-4.26,15.35,7.86,25.05,21.87,21.71c-18.27,21.79-45.12,10.64-48.82-8.2
		c-6.09,10.23,0.5,21.31,6.56,24.45c-31.37,11.41-33.37-33.88-15.79-57.34c-17.44,1.29-25.74,18.32-33.92,29.75
		c-16.04-9.03,13.84-34.96-1.34-29.71c-14.95,5.21-29.86-2.74-23.02-22.52c10.6,2.13,13.97,12.11,29.99,5.19
		c7.07-3.07,12.84-10.37,20.39-12.57c12.07-3.43,24.19,2.72,22.81,18c-0.81,9.74-10.43,14.53-12.04,26.01
		c5.01,0.04,6.73-11.58,14.83-13.05c-1.53,9.76-0.82,21.79,5.49,23.67L340.2,245.47z"/>
	<path class="st6" d="M545.69,575.41c-7.78,38.37-65.82,58.92-129.64,45.84C352.23,608.2,298.7,546.43,306.52,508.1
		c7.84-38.31,74.15-38.79,137.9-25.68C508.24,495.43,553.63,537.08,545.69,575.41z"/>
	<path class="st4" d="M540.4,510.9c-96.52-62.56-207.22-70.05-237.35-34.27c-30.15,35.77-29.02,78.12-16.1,145.05
		c16.69,86.57,110.85,220.2,110.85,220.2c17.96,32.66-14.41,42.85,16.12,62.02c13.59,8.53,23.88-18.42,26.77-31.59
		c2.87-13.13,23.32,5.87,36.89-8.37c13.51-14.22,1.78-33.79-19.07-25.64c-20.89,8.09-35.19-18.4-38.91-36.86
		c-14.11-68.88,106.08-145.6,130.19-160.95C573.82,625.07,636.88,573.47,540.4,510.9z M543.01,574.83
		c-7.63,37.45-64.36,57.52-126.73,44.77c-62.37-12.76-114.65-73.1-107.06-110.55c7.72-37.45,72.49-37.87,134.77-25.14
		C506.36,496.66,550.69,537.38,543.01,574.83z"/>
	<path class="st4" d="M438.57,510.51c-41.57-8.51-86.63-12.02-91.32,10.73c-4.64,22.79,32.89,63.29,74.48,71.76
		c41.63,8.55,79.1-3.03,83.75-25.84C510.16,544.38,480.18,519,438.57,510.51z M450.09,559.41c-2.03,9.87-18.25,14.89-36.25,11.21
		c-17.96-3.68-34.75-27.06-32.71-36.91c2.05-9.85,22-2.48,40.02,1.17C439.17,538.59,452.14,549.57,450.09,559.41z"/>
	<path class="st2" d="M592.26,287.73c0,0-22.31,98.88-89.73,121.17c-56.66,18.8-33.12,29.79,1.72,51.82
		c34.84,22.12,127.87,57.04,129.67,133.91c1.03,44.22-69.77,106.51-69.77,106.51s50.72,17.86,89.5-26.97
		c5.37,36.16,63.69,71.43,63.69,71.43s36.18-12.88-19.45-118.86c-11.54-83.45,48.91-116.74-0.46-238.23
		C663.5,304.98,592.26,287.73,592.26,287.73"/>
	<path class="st2" d="M567.79,278.57c-13.17-13.24-159.07-55.58-169.52-26.06c-22.35,62.87,28.75,165.71,81.14,144.82
		C531.81,376.43,580.94,291.83,567.79,278.57z M475.85,302.43c-6.06,4.81-14.93,3.7-19.93-2.53c-5-6.23-4.14-15.14,1.88-19.99
		c6-4.79,14.93-3.7,19.89,2.53C482.71,288.63,481.83,297.58,475.85,302.43z"/>
	<path class="st5" d="M102.45,630.2c2.28,8.09,24.84,64.26,55.52,109.2c37.72,55.26,107.39,116.76,137.78,114.69
		c59.66-4.14-2.61-129.98-5.5-137.86c-7.17-19.99-30.11,28.57-46.23,10.69c-23.19-25.76,36.36-20.93,24.78-72.67
		c-8.11-36.36-21.22-20.85-28.9-16.68c-7.72,4.2-43.79,50.02-41.65,16.68c2.68-42.55,68.08-47.13,39.6-86.74
		c-13.17-18.44-49.18,40.76-66.02,23.57c-29.1-29.78,49.93-48.37,45.86-57.88c-17.67-41.27-71.6-49.85-94.04-40.58
		c-14.24,5.89-30.72,21.26-34.56,52.31C86.61,565.02,91.21,590.18,102.45,630.2"/>
	<path class="st7" d="M509.37,812.95c4.58-8.01,10.59,1.84,10.59,1.84s13.63,10.62,27.03,10.31l13.41-0.23
		c0,0-32.81-44.96,0.1-67.19s112.9-19.47,122.83,25.59c3.98,18.35-8.01,16.71-4.79,29.75c3.22,13.01,14.8,11.94,13.57,31.83
		c-2.11,34.81-75.61,77.14-116.76,48.2c-41.15-28.86-10.5-63.82-10.5-63.82s-39.98,9.26-53.47-2.36
		C509.37,825.1,505.69,819.29,509.37,812.95"/>
</g>
</svg>
